<svg width="32" height="32" viewBox="0 0 32 32" fill="none" xmlns="http://www.w3.org/2000/svg">
<mask id="mask0_66_451" style="mask-type:alpha" maskUnits="userSpaceOnUse" x="0" y="0" width="32" height="32">
<rect width="32" height="32" fill="#D9D9D9"/>
</mask>
<g mask="url(#mask0_66_451)">
<path d="M15.3333 26.2847V16.3821L6.66666 11.3641V20.8051C6.66666 20.942 6.70088 21.0702 6.76933 21.1898C6.83755 21.3095 6.94011 21.4121 7.07699 21.4974L15.3333 26.2847ZM16.6667 26.2847L24.923 21.4974C25.0599 21.4121 25.1624 21.3095 25.2307 21.1898C25.2991 21.0702 25.3333 20.942 25.3333 20.8051V11.3641L16.6667 16.3821V26.2847ZM16 15.2361L24.5667 10.2848L16.4103 5.56408C16.2734 5.47875 16.1367 5.43609 16 5.43609C15.8633 5.43609 15.7266 5.47875 15.5897 5.56408L7.43333 10.2848L16 15.2361ZM6.41033 22.6771C6.07344 22.484 5.80977 22.2215 5.61933 21.8898C5.42866 21.5582 5.33333 21.1992 5.33333 20.8128V11.1874C5.33333 10.801 5.42866 10.442 5.61933 10.1104C5.80977 9.77864 6.07344 9.5162 6.41033 9.32309L14.923 4.41808C15.2599 4.22497 15.6189 4.12842 16 4.12842C16.3811 4.12842 16.7401 4.22497 17.077 4.41808L25.5897 9.32309C25.9266 9.5162 26.1902 9.77864 26.3807 10.1104C26.5713 10.442 26.6667 10.801 26.6667 11.1874V20.8128C26.6667 21.1992 26.5713 21.5582 26.3807 21.8898C26.1902 22.2215 25.9266 22.484 25.5897 22.6771L17.077 27.5821C16.7401 27.7752 16.3811 27.8718 16 27.8718C15.6189 27.8718 15.2599 27.7752 14.923 27.5821L6.41033 22.6771Z" fill="black"/>
</g>
</svg>
