<svg width="32" height="32" viewBox="0 0 32 32" fill="none" xmlns="http://www.w3.org/2000/svg">
<mask id="mask0_168_2253" style="mask-type:alpha" maskUnits="userSpaceOnUse" x="0" y="0" width="32" height="32">
<rect width="32" height="32" fill="#D9D9D9"/>
</mask>
<g mask="url(#mask0_168_2253)">
<path d="M6.66667 5.33333V13.777V13.7437V26.6667V5.33333ZM7.48734 28C6.87356 28 6.36111 27.7944 5.95 27.3833C5.53889 26.9722 5.33334 26.4598 5.33334 25.846V6.154C5.33334 5.54022 5.53889 5.02778 5.95 4.61667C6.36111 4.20556 6.87356 4 7.48734 4H17.105C17.3999 4 17.6809 4.05811 17.948 4.17433C18.2151 4.29055 18.4452 4.44522 18.6383 4.63833L23.3617 9.36167C23.5548 9.55478 23.7094 9.78489 23.8257 10.052C23.9419 10.3191 24 10.6001 24 10.895V13.5717C24 13.7632 23.936 13.921 23.808 14.045C23.68 14.1688 23.5214 14.2307 23.3323 14.2307C23.1432 14.2307 22.985 14.1668 22.8577 14.039C22.7303 13.9112 22.6667 13.7529 22.6667 13.564V10.6667H18.3997C18.0972 10.6667 17.8439 10.5644 17.6397 10.36C17.4354 10.1556 17.3333 9.90222 17.3333 9.6V5.33333H7.48734C7.282 5.33333 7.09389 5.41878 6.923 5.58967C6.75211 5.76056 6.66667 5.94867 6.66667 6.154V25.846C6.66667 26.0513 6.75211 26.2394 6.923 26.4103C7.09389 26.5812 7.282 26.6667 7.48734 26.6667H14.436C14.6249 26.6667 14.7832 26.7307 14.911 26.8587C15.0388 26.9867 15.1027 27.1452 15.1027 27.3343C15.1027 27.5234 15.0388 27.6817 14.911 27.809C14.7832 27.9363 14.6249 28 14.436 28H7.48734ZM22.005 25.7437C23.0546 25.7437 23.9401 25.3812 24.6617 24.6563C25.383 23.9317 25.7437 23.0446 25.7437 21.995C25.7437 20.9454 25.3812 20.0599 24.6563 19.3383C23.9317 18.617 23.0446 18.2563 21.995 18.2563C20.9454 18.2563 20.0599 18.6188 19.3383 19.3437C18.617 20.0683 18.2563 20.9554 18.2563 22.005C18.2563 23.0546 18.6188 23.9401 19.3437 24.6617C20.0683 25.383 20.9555 25.7437 22.005 25.7437ZM29.2737 29.2717C29.1501 29.3966 28.9928 29.459 28.8017 29.459C28.6108 29.459 28.453 29.3966 28.3283 29.2717L25.0973 26.0153C24.6649 26.3607 24.185 26.6239 23.6577 26.805C23.1303 26.9863 22.5778 27.077 22 27.077C20.5898 27.077 19.3911 26.5833 18.404 25.596C17.4167 24.6089 16.923 23.4102 16.923 22C16.923 20.5898 17.4167 19.3911 18.404 18.404C19.3911 17.4167 20.5898 16.923 22 16.923C23.4102 16.923 24.6089 17.4167 25.596 18.404C26.5833 19.3911 27.077 20.5898 27.077 22C27.077 22.5778 26.9863 23.1303 26.805 23.6577C26.6239 24.185 26.3607 24.6649 26.0153 25.0973L29.2717 28.3283C29.3966 28.4514 29.459 28.6083 29.459 28.799C29.459 28.9894 29.3972 29.147 29.2737 29.2717Z" fill="black"/>
</g>
</svg>
