<svg width="32" height="32" viewBox="0 0 32 32" fill="none" xmlns="http://www.w3.org/2000/svg">
<mask id="mask0_168_2358" style="mask-type:alpha" maskUnits="userSpaceOnUse" x="0" y="0" width="32" height="32">
<rect width="32" height="32" fill="#D9D9D9"/>
</mask>
<g mask="url(#mask0_168_2358)">
<path d="M20.5127 6.35897H12.205C11.9657 6.35897 11.7691 6.43586 11.6153 6.58963C11.4616 6.74363 11.3847 6.94019 11.3847 7.1793V16.0256H20.5127V6.35897ZM25.846 6.35897H21.846V16.0256H25.846C26.0853 16.0256 26.282 15.953 26.436 15.8076C26.5898 15.6623 26.6667 15.47 26.6667 15.2306V7.1793C26.6667 6.94019 26.5898 6.74363 26.436 6.58963C26.282 6.43586 26.0853 6.35897 25.846 6.35897ZM20.6283 17.359H10.359V25.3333H18.0667C18.5333 25.3333 18.9833 25.2555 19.4167 25.1C19.85 24.9444 20.2444 24.7111 20.6 24.4L26.1333 19.8333C25.8871 19.57 25.6144 19.3725 25.3153 19.241C25.0162 19.1094 24.7017 19.0214 24.3717 18.977C24.011 18.9445 23.6572 18.977 23.3103 19.0743C22.9632 19.1719 22.6341 19.3429 22.323 19.5873L20.5333 21.0153C20.3402 21.176 20.1347 21.2947 19.9167 21.3716C19.6987 21.4487 19.4598 21.4873 19.2 21.4873H14.718C14.5282 21.4873 14.3697 21.4235 14.2423 21.296C14.115 21.1686 14.0513 21.0102 14.0513 20.8206C14.0513 20.6309 14.115 20.4723 14.2423 20.345C14.3697 20.2176 14.5282 20.154 14.718 20.154H19.482L21.1793 18.7743C21.3076 18.6734 21.3952 18.5503 21.4423 18.405C21.4892 18.2599 21.4871 18.1035 21.436 17.936C21.3847 17.748 21.2842 17.6047 21.1347 17.5063C20.9851 17.4081 20.8163 17.359 20.6283 17.359ZM9.02567 17.3333H6.154C5.91467 17.3333 5.718 17.4102 5.564 17.564C5.41022 17.718 5.33333 17.9146 5.33333 18.154V25.846C5.33333 26.0853 5.41022 26.282 5.564 26.436C5.718 26.5897 5.91467 26.6666 6.154 26.6666H8.205C8.44433 26.6666 8.641 26.5897 8.795 26.436C8.94878 26.282 9.02567 26.0853 9.02567 25.846V17.3333ZM10.0513 17.359V7.1793C10.0513 6.56575 10.2569 6.05341 10.668 5.6423C11.0791 5.23119 11.5914 5.02563 12.205 5.02563H25.846C26.4598 5.02563 26.9722 5.23119 27.3833 5.6423C27.7944 6.05341 28 6.56575 28 7.1793V15.205C28 15.8187 27.7944 16.3312 27.3833 16.7423C26.9722 17.1534 26.4598 17.359 25.846 17.359H10.0513ZM8.205 28.0256H6.154C5.54022 28.0256 5.02778 27.8201 4.61667 27.409C4.20556 26.9979 4 26.4854 4 25.8716V18.1793C4 17.5657 4.20556 17.0534 4.61667 16.6423C5.02778 16.2312 5.54022 16.0256 6.154 16.0256H20.6027C21.9102 16.0256 23.1469 16.2923 24.3127 16.8256C25.4787 17.359 26.4839 18.1273 27.3283 19.1306C27.5214 19.3546 27.6018 19.6175 27.5693 19.9193C27.5369 20.2209 27.4027 20.476 27.1667 20.6846L21.4617 25.4666C20.9812 25.8582 20.447 26.1603 19.859 26.373C19.271 26.5859 18.6736 26.6923 18.0667 26.6923H10.1973C10.0384 27.0923 9.78033 27.4145 9.423 27.659C9.06589 27.9034 8.65989 28.0256 8.205 28.0256Z" fill="black"/>
</g>
</svg>
