<svg width="32" height="32" viewBox="0 0 32 32" fill="none" xmlns="http://www.w3.org/2000/svg">
<mask id="mask0_66_396" style="mask-type:alpha" maskUnits="userSpaceOnUse" x="0" y="0" width="32" height="32">
<rect width="32" height="32" fill="#D9D9D9"/>
</mask>
<g mask="url(#mask0_66_396)">
<path d="M13.5867 21.8205C15.8793 21.8205 17.8248 21.018 19.423 19.4131C21.0214 17.8082 21.8207 15.8595 21.8207 13.5668C21.8207 11.2743 21.02 9.32468 19.4187 7.71779C17.8173 6.1109 15.8729 5.30745 13.5853 5.30745C11.2978 5.30745 9.35056 6.1099 7.74367 7.71479C6.13678 9.31968 5.33333 11.2683 5.33333 13.5608C5.33333 15.8535 6.13578 17.8032 7.74067 19.4101C9.34533 21.017 11.294 21.8205 13.5867 21.8205ZM12.241 15.3178L10.0077 13.0921C9.87767 12.9621 9.72467 12.8929 9.54867 12.8845C9.37267 12.8758 9.21111 12.945 9.064 13.0921C8.91711 13.239 8.84233 13.3962 8.83967 13.5638C8.83722 13.7313 8.90944 13.8887 9.05633 14.0358L11.4793 16.4588C11.6913 16.6741 11.9431 16.7818 12.2347 16.7818C12.526 16.7818 12.7794 16.6741 12.995 16.4588L18.0973 11.3381C18.2273 11.2083 18.2966 11.0541 18.305 10.8755C18.3137 10.6968 18.2444 10.534 18.0973 10.3871C17.9504 10.24 17.7919 10.1665 17.6217 10.1665C17.4517 10.1665 17.2931 10.24 17.146 10.3871L12.241 15.3178ZM13.5897 23.1538C10.9368 23.1538 8.67522 22.2187 6.805 20.3485C4.935 18.4785 4 16.2169 4 13.5638C4 10.9109 4.935 8.64934 6.805 6.77912C8.67522 4.90912 10.9368 3.97412 13.5897 3.97412C16.2428 3.97412 18.5001 4.90912 20.3617 6.77912C22.2232 8.64934 23.154 10.9109 23.154 13.5638C23.154 14.7713 22.9467 15.9087 22.532 16.9758C22.1176 18.0431 21.5462 18.9981 20.818 19.8408L27.554 26.5768C27.6838 26.7021 27.7487 26.851 27.7487 27.0235C27.7487 27.1957 27.6819 27.3553 27.5483 27.5025C27.415 27.6493 27.2564 27.7228 27.0727 27.7228C26.8891 27.7228 26.7239 27.6493 26.577 27.5025L19.8667 20.7921C19.024 21.5375 18.069 22.1173 17.0017 22.5318C15.9343 22.9465 14.797 23.1538 13.5897 23.1538Z" fill="black"/>
</g>
</svg>
