<svg width="32" height="32" viewBox="0 0 32 32" fill="none" xmlns="http://www.w3.org/2000/svg">
<mask id="mask0_168_2260" style="mask-type:alpha" maskUnits="userSpaceOnUse" x="0" y="0" width="32" height="32">
<rect width="32" height="32" fill="#D9D9D9"/>
</mask>
<g mask="url(#mask0_168_2260)">
<path d="M8 25.3334H12.923V18.5641C12.923 18.2589 13.0262 18.0032 13.2327 17.7967C13.4391 17.5905 13.6949 17.4874 14 17.4874H18C18.3051 17.4874 18.5609 17.5905 18.7673 17.7967C18.9738 18.0032 19.077 18.2589 19.077 18.5641V25.3334H24V13.7437C24 13.6068 23.9701 13.4828 23.9103 13.3717C23.8506 13.2606 23.7693 13.1624 23.6667 13.0771L16.4873 7.66672C16.3504 7.54716 16.188 7.48739 16 7.48739C15.812 7.48739 15.6496 7.54716 15.5127 7.66672L8.33333 13.0771C8.23067 13.1624 8.14944 13.2606 8.08967 13.3717C8.02989 13.4828 8 13.6068 8 13.7437V25.3334ZM6.66667 25.3334V13.7437C6.66667 13.4026 6.743 13.0795 6.89567 12.7744C7.04811 12.4693 7.259 12.2181 7.52833 12.0207L14.7077 6.58472C15.0834 6.29761 15.5129 6.15405 15.996 6.15405C16.4791 6.15405 16.9112 6.29761 17.2923 6.58472L24.4717 12.0207C24.741 12.2181 24.9519 12.4693 25.1043 12.7744C25.257 13.0795 25.3333 13.4026 25.3333 13.7437V25.3334C25.3333 25.6907 25.2004 26.0023 24.9347 26.2681C24.6689 26.5338 24.3573 26.6667 24 26.6667H18.8207C18.5153 26.6667 18.2596 26.5635 18.0533 26.3571C17.8469 26.1506 17.7437 25.8948 17.7437 25.5897V18.8207H14.2563V25.5897C14.2563 25.8948 14.1531 26.1506 13.9467 26.3571C13.7404 26.5635 13.4847 26.6667 13.1793 26.6667H8C7.64267 26.6667 7.33111 26.5338 7.06533 26.2681C6.79956 26.0023 6.66667 25.6907 6.66667 25.3334Z" fill="#A6A6A6"/>
</g>
</svg>
