<svg width="32" height="32" viewBox="0 0 32 32" fill="none" xmlns="http://www.w3.org/2000/svg">
<mask id="mask0_55_13" style="mask-type:alpha" maskUnits="userSpaceOnUse" x="0" y="0" width="32" height="32">
<rect width="32" height="32" fill="#D9D9D9"/>
</mask>
<g mask="url(#mask0_55_13)">
<path d="M13.5867 21.8207C15.8793 21.8207 17.8248 21.0183 19.423 19.4134C21.0214 17.8085 21.8207 15.8597 21.8207 13.567C21.8207 11.2746 21.02 9.32492 19.4187 7.71803C17.8173 6.11114 15.8729 5.3077 13.5853 5.3077C11.2978 5.3077 9.35056 6.11014 7.74367 7.71503C6.13678 9.31992 5.33333 11.2686 5.33333 13.561C5.33333 15.8537 6.13578 17.8035 7.74067 19.4104C9.34533 21.0173 11.294 21.8207 13.5867 21.8207ZM12.241 15.318L10.0077 13.0924C9.87767 12.9624 9.72467 12.8931 9.54867 12.8847C9.37267 12.876 9.21111 12.9453 9.064 13.0924C8.91711 13.2393 8.84233 13.3965 8.83967 13.564C8.83722 13.7316 8.90944 13.8889 9.05633 14.036L11.4793 16.459C11.6913 16.6744 11.9431 16.782 12.2347 16.782C12.526 16.782 12.7794 16.6744 12.995 16.459L18.0973 11.3384C18.2273 11.2086 18.2966 11.0544 18.305 10.8757C18.3137 10.697 18.2444 10.5343 18.0973 10.3874C17.9504 10.2403 17.7919 10.1667 17.6217 10.1667C17.4517 10.1667 17.2931 10.2403 17.146 10.3874L12.241 15.318ZM13.5897 23.154C10.9368 23.154 8.67522 22.2189 6.805 20.3487C4.935 18.4787 4 16.2171 4 13.564C4 10.9111 4.935 8.64959 6.805 6.77937C8.67522 4.90937 10.9368 3.97437 13.5897 3.97437C16.2428 3.97437 18.5001 4.90937 20.3617 6.77937C22.2232 8.64959 23.154 10.9111 23.154 13.564C23.154 14.7716 22.9467 15.9089 22.532 16.976C22.1176 18.0434 21.5462 18.9984 20.818 19.841L27.554 26.577C27.6838 26.7024 27.7487 26.8513 27.7487 27.0237C27.7487 27.1959 27.6819 27.3556 27.5483 27.5027C27.415 27.6496 27.2564 27.723 27.0727 27.723C26.8891 27.723 26.7239 27.6496 26.577 27.5027L19.8667 20.7924C19.024 21.5377 18.069 22.1176 17.0017 22.532C15.9343 22.9467 14.797 23.154 13.5897 23.154Z" fill="#A6A6A6"/>
</g>
</svg>
