<svg width="28" height="28" viewBox="0 0 28 28" fill="none" xmlns="http://www.w3.org/2000/svg">
<mask id="mask0_170_637" style="mask-type:alpha" maskUnits="userSpaceOnUse" x="0" y="0" width="28" height="28">
<rect width="28" height="28" fill="#D9D9D9"/>
</mask>
<g mask="url(#mask0_170_637)">
<path d="M3.28913 14L12.2903 23.0014C12.4623 23.1733 12.5473 23.3789 12.5452 23.6183C12.5428 23.8576 12.4556 24.0632 12.2836 24.2351C12.1117 24.4072 11.906 24.4933 11.6667 24.4933C11.4273 24.4933 11.2217 24.4072 11.0498 24.2351L2.13355 15.3259C1.94513 15.1375 1.80756 14.9274 1.72084 14.6956C1.63412 14.4636 1.59076 14.2317 1.59076 14C1.59076 13.7682 1.63412 13.5363 1.72084 13.3043C1.80756 13.0726 1.94513 12.8625 2.13355 12.674L11.0498 3.75809C11.2217 3.58601 11.4285 3.50113 11.6702 3.50346C11.9117 3.5056 12.1184 3.59272 12.2903 3.7648C12.4623 3.93669 12.5484 4.14231 12.5484 4.38167C12.5484 4.62103 12.4623 4.82666 12.2903 4.99855L3.28913 14Z" fill="#1C1B1F"/>
</g>
</svg>
