<svg width="32" height="32" viewBox="0 0 32 32" fill="none" xmlns="http://www.w3.org/2000/svg">
<mask id="mask0_158_1388" style="mask-type:alpha" maskUnits="userSpaceOnUse" x="0" y="0" width="32" height="32">
<rect width="32" height="32" fill="#D9D9D9"/>
</mask>
<g mask="url(#mask0_158_1388)">
<path d="M15.9997 27.3337C15.7161 27.3337 15.4787 27.2378 15.2874 27.046C15.0958 26.8544 15 26.617 15 26.3337V17.0003H5.66669C5.38335 17.0003 5.14591 16.9044 4.95435 16.7127C4.76258 16.5209 4.66669 16.2833 4.66669 16C4.66669 15.7164 4.76258 15.479 4.95435 15.2877C5.14591 15.0961 5.38335 15.0003 5.66669 15.0003H15V5.66699C15 5.38366 15.0959 5.14621 15.2877 4.95466C15.4795 4.76288 15.717 4.66699 16.0004 4.66699C16.2839 4.66699 16.5214 4.76288 16.7127 4.95466C16.9042 5.14621 17 5.38366 17 5.66699V15.0003H26.3334C26.6167 15.0003 26.8541 15.0962 27.0457 15.288C27.2375 15.4798 27.3334 15.7173 27.3334 16.0007C27.3334 16.2842 27.2375 16.5217 27.0457 16.713C26.8541 16.9045 26.6167 17.0003 26.3334 17.0003H17V26.3337C17 26.617 16.9041 26.8544 16.7124 27.046C16.5206 27.2378 16.283 27.3337 15.9997 27.3337Z" fill="white"/>
</g>
</svg>
