<svg width="108" height="108" viewBox="0 0 108 108" fill="none" xmlns="http://www.w3.org/2000/svg">
<mask id="mask0_225_1794" style="mask-type:alpha" maskUnits="userSpaceOnUse" x="0" y="0" width="108" height="108">
<rect width="108" height="108" fill="#D9D9D9"/>
</mask>
<g mask="url(#mask0_225_1794)">
<path d="M23.175 61.2001C23.775 60.0751 24.5955 59.1938 25.6365 58.5563C26.6768 57.9188 27.8438 57.6001 29.1375 57.6001C30.4875 57.6001 31.7288 57.9515 32.8613 58.6542C33.9938 59.3577 34.8151 60.3563 35.3251 61.6501L37.4625 66.6001C38.1376 68.0251 39.3773 68.6787 41.1818 68.561C42.987 68.4432 44.1473 67.6771 44.6625 66.2626L54 36.9001C54.9001 34.1251 56.55 31.9313 58.95 30.3188C61.35 28.7063 63.9893 27.9001 66.8678 27.9001C69.6893 27.9001 72.3 28.6876 74.7 30.2626C77.1001 31.8376 78.7501 33.9751 79.65 36.6751L96.3 82.1251C96.4501 82.6501 96.4126 83.1188 96.1876 83.5313C95.9625 83.9438 95.5512 84.1501 94.9534 84.1501C94.6122 84.1501 94.2994 84.0564 94.0152 83.8689C93.7309 83.6814 93.5175 83.4376 93.3751 83.1376L76.6125 37.6876C75.9375 35.5876 74.6813 33.9563 72.8438 32.7938C71.0063 31.6313 69 31.0501 66.825 31.0501C64.65 31.0501 62.6438 31.6501 60.8063 32.8501C58.9688 34.0501 57.7126 35.7001 57.0376 37.8001L47.7001 67.1626C47.175 68.5876 46.3125 69.7313 45.1125 70.5938C43.9125 71.4563 42.5479 71.8876 41.0187 71.8876C39.6424 71.8876 38.3682 71.5313 37.1959 70.8188C36.0237 70.1063 35.1375 69.1126 34.5375 67.8376L32.175 62.2126C31.575 60.9376 30.5438 60.2813 29.0813 60.2439C27.6188 60.2063 26.55 60.8251 25.875 62.1001L14.85 83.3626C14.7233 83.6011 14.5328 83.792 14.2785 83.9352C14.0243 84.0785 13.7573 84.1501 13.4775 84.1501C12.8925 84.1501 12.45 83.9251 12.15 83.4751C11.85 83.0251 11.85 82.5376 12.15 82.0126L23.175 61.2001ZM29.8058 44.5501C26.9603 44.5501 24.5063 43.532 22.4438 41.4957C20.3813 39.4602 19.35 37.0373 19.35 34.2271C19.35 31.3591 20.3813 28.9126 22.4438 26.8876C24.5063 24.8626 26.9603 23.8501 29.8058 23.8501C32.6513 23.8501 35.07 24.8596 37.062 26.8786C39.054 28.8983 40.05 31.3505 40.05 34.235C40.05 37.0617 39.054 39.4876 37.062 41.5126C35.07 43.5376 32.6513 44.5501 29.8058 44.5501ZM29.7945 41.4001C31.8075 41.4001 33.4951 40.6876 34.857 39.2626C36.219 37.8376 36.9 36.1313 36.9 34.1438C36.9 32.1563 36.219 30.4688 34.857 29.0813C33.4951 27.6938 31.8075 27.0001 29.7945 27.0001C27.7815 27.0001 26.0625 27.6901 24.6375 29.0701C23.2125 30.4501 22.5 32.1601 22.5 34.2001C22.5 36.1501 23.2125 37.8376 24.6375 39.2626C26.0625 40.6876 27.7815 41.4001 29.7945 41.4001Z" fill="#A6A6A6"/>
</g>
</svg>
