<svg width="24" height="24" viewBox="0 0 24 24" fill="none" xmlns="http://www.w3.org/2000/svg">
<mask id="mask0_500_514" style="mask-type:alpha" maskUnits="userSpaceOnUse" x="0" y="0" width="24" height="24">
<rect width="24" height="24" fill="#D9D9D9"/>
</mask>
<g mask="url(#mask0_500_514)">
<path d="M12.077 19C10.1229 19 8.46761 18.3222 7.11128 16.9665C5.75511 15.6108 5.07703 13.9563 5.07703 12.003C5.07703 10.0497 5.75511 8.39417 7.11128 7.0365C8.46761 5.67883 10.1229 5 12.077 5C13.2654 5 14.3782 5.28233 15.4155 5.847C16.4527 6.41183 17.2885 7.2 17.923 8.2115V5.5C17.923 5.35833 17.971 5.23958 18.067 5.14375C18.163 5.04792 18.2819 5 18.4238 5C18.5656 5 18.6843 5.04792 18.7798 5.14375C18.8753 5.23958 18.923 5.35833 18.923 5.5V9.423C18.923 9.65183 18.8456 9.84367 18.6908 9.9985C18.5361 10.1533 18.3444 10.2307 18.1155 10.2307H14.1923C14.0506 10.2307 13.9319 10.1827 13.836 10.0867C13.7402 9.99092 13.6923 9.872 13.6923 9.73C13.6923 9.58817 13.7402 9.4695 13.836 9.374C13.9319 9.2785 14.0506 9.23075 14.1923 9.23075H17.3923C16.8718 8.23325 16.1394 7.44542 15.1953 6.86725C14.2509 6.28908 13.2115 6 12.077 6C10.4104 6 8.99369 6.58333 7.82703 7.75C6.66036 8.91667 6.07703 10.3333 6.07703 12C6.07703 13.6667 6.66036 15.0833 7.82703 16.25C8.99369 17.4167 10.4104 18 12.077 18C13.268 18 14.3584 17.6772 15.3483 17.0317C16.3379 16.3862 17.0719 15.5288 17.55 14.4595C17.6064 14.3288 17.6977 14.2369 17.824 14.1838C17.9504 14.1304 18.0796 14.1263 18.2118 14.1713C18.3526 14.2161 18.4461 14.3077 18.4923 14.4462C18.5384 14.5846 18.5334 14.7192 18.477 14.85C17.9219 16.1063 17.0686 17.1121 15.9173 17.8673C14.7659 18.6224 13.4859 19 12.077 19Z" fill="#1C1B1F"/>
</g>
</svg>
